<?xml version="1.0" encoding="utf-8"?>
<!-- Generator: Adobe Illustrator 16.0.0, SVG Export Plug-In . SVG Version: 6.00 Build 0)  -->
<!DOCTYPE svg PUBLIC "-//W3C//DTD SVG 1.0//EN" "http://www.w3.org/TR/2001/REC-SVG-20010904/DTD/svg10.dtd">
<svg version="1.0" id="Layer_1" xmlns="http://www.w3.org/2000/svg" xmlns:xlink="http://www.w3.org/1999/xlink" x="0px" y="0px"
	 width="100px" height="100px" viewBox="0 0 100 100" enable-background="new 0 0 100 100" xml:space="preserve">
<polygon points="53.333,43.333 53.333,50 46.667,50 46.667,43.333 16.667,43.333 16.667,56.667 83.333,56.667 83.333,43.333 "/>
<path d="M10,16.667v6.667h6.667v13.333h66.666V23.334H90v-6.667H10z M53.333,30h-6.666v-6.666h6.666V30z"/>
<polygon points="53.333,63.333 53.333,70 46.667,70 46.667,63.333 16.667,63.333 16.667,83.333 23.333,83.333 23.333,76.667 
	76.667,76.667 76.667,83.333 83.333,83.333 83.333,63.333 "/>
</svg>
